<?xml version="1.0" standalone="no"?>
<!DOCTYPE svg PUBLIC "-//W3C//DTD SVG 20010904//EN"
 "http://www.w3.org/TR/2001/REC-SVG-20010904/DTD/svg10.dtd">
<svg version="1.0" xmlns="http://www.w3.org/2000/svg"
 width="256.000000pt" height="256.000000pt" viewBox="0 0 256.000000 256.000000"
 preserveAspectRatio="xMidYMid meet">

<g transform="translate(0.000000,256.000000) scale(0.100000,-0.100000)"
fill="#000000" stroke="none">
<path d="M0 1280 l0 -1280 1280 0 1280 0 0 1280 0 1280 -1280 0 -1280 0 0
-1280z m831 450 c35 -11 86 -36 113 -56 l49 -36 -51 -51 -51 -51 -23 21 c-61
57 -176 70 -263 29 -142 -66 -186 -238 -95 -370 34 -51 111 -95 178 -103 93
-11 200 46 242 128 11 21 20 43 20 49 0 6 -31 10 -80 10 l-80 0 0 65 0 65 156
0 157 0 -5 -83 c-10 -188 -135 -331 -321 -368 -153 -31 -329 56 -405 198 -79
151 -60 318 50 438 112 123 256 163 409 115z m854 -100 c26 -26 26 -91 1 -119
-74 -82 -202 31 -133 118 29 35 97 36 132 1z m-205 -265 l0 -65 -80 0 -80 0 0
-150 0 -150 -70 0 -70 0 0 215 0 215 150 0 150 0 0 -65z m210 -150 l0 -215
-70 0 -70 0 0 215 0 215 70 0 70 0 0 -215z m403 199 c86 -29 157 -128 157
-219 0 -91 -71 -190 -157 -219 -26 -9 -79 -16 -120 -16 l-73 0 0 -85 0 -85
-70 0 -70 0 0 320 0 320 143 0 c105 0 156 -4 190 -16z"/>
<path d="M1900 1195 l0 -95 79 0 c76 0 80 1 105 31 36 42 35 97 0 133 -24 24
-34 26 -105 26 l-79 0 0 -95z"/>
</g>
</svg>
